<svg width="110" height="110" viewBox="0 0 110 110" fill="none" xmlns="http://www.w3.org/2000/svg">
<rect width="110" height="110" rx="30" fill="#4A8C3F"/>
<path d="M68.6814 35.8592C67.1027 36.9335 65.4441 37.8675 63.7287 38.6392C60.7043 40.0013 57.5276 40.8911 54.1647 41.8325C50.0316 42.9905 45.758 44.1867 41.787 46.3391C38.9203 47.8924 36.2396 49.9702 33.9041 52.4357C39.4568 43.4097 39.4232 38.0363 37.7899 30.1123C37.6943 37.6209 35.373 45.0877 31.1966 51.3277C28.2999 55.6528 24.5195 59.4355 22.3976 64.1887C19.5944 70.4638 20.0576 77.9299 22.8892 84.1923C24.5367 87.8346 26.9267 91.0868 29.78 93.8945C22.9879 90.9299 17.1304 85.5327 13.6592 78.9243C9.68004 71.3455 8.8963 62.2858 11.5531 54.5299C14.0679 47.1872 19.3822 41.2714 22.4193 34.1565C25.1612 27.7342 25.9562 20.3914 24.6786 13.29C33.5276 10.7379 43.613 12.0147 51.9831 16.7462C59.4626 20.9742 65.4837 27.9105 68.6814 35.8592Z" fill="#2D5A27"/>
<path d="M96.3267 76.0841C91.5219 86.118 82.3263 93.3861 72.1691 96.5875C62.0126 99.7897 50.9963 99.1517 40.8219 96.0137C39.1454 95.4959 37.4501 94.8744 35.8117 94.1242C30.1783 67.3607 50.9843 64.423 59.2139 62.3138C70.5717 59.4023 74.3313 55.385 78.696 48.1192C73.5393 53.5777 66.7741 57.4986 59.4747 59.2595C54.4144 60.4796 49.0709 60.7015 44.2901 62.7606C37.9776 65.4786 33.261 71.2846 31.1018 77.8092C29.8466 81.6046 29.4021 85.6159 29.5993 89.6146C26.6108 82.8329 25.9578 74.8947 27.8809 67.6819C30.0865 59.4112 35.6473 52.2156 42.8548 48.3096C49.6791 44.6113 57.5956 43.8597 64.6492 40.683C71.0162 37.8155 76.5749 32.9525 80.4457 26.8626C88.6843 30.9793 95.238 38.7502 98.1907 47.9009C101.143 57.0517 100.455 67.4616 96.3267 76.0841Z" fill="white"/>
</svg>
