
<svg width="213" height="32" viewBox="0 0 213 32" fill="none" xmlns="http://www.w3.org/2000/svg">
<path d="M51.4928 4.76V5.36C51.0328 5.58 50.5328 6.02 49.9928 6.68C49.4528 7.32 48.9528 8.28 48.4928 9.56L42.6428 26C42.4028 25.98 42.1428 25.97 41.8628 25.97C41.6028 25.95 41.3328 25.94 41.0528 25.94C40.7928 25.94 40.5228 25.95 40.2428 25.97C39.9828 25.97 39.7328 25.98 39.4928 26L31.6328 7.28C31.3528 6.58 31.0528 6.09 30.7328 5.81C30.4328 5.53 30.1428 5.38 29.8628 5.36V4.76C30.5828 4.78 31.4228 4.8 32.3828 4.82C33.3628 4.84 34.3428 4.85 35.3228 4.85C36.3428 4.85 37.3028 4.84 38.2028 4.82C39.1028 4.8 39.8228 4.78 40.3628 4.76V5.36C39.7428 5.38 39.2528 5.45 38.8928 5.57C38.5328 5.69 38.3228 5.93 38.2628 6.29C38.2228 6.63 38.3428 7.16 38.6228 7.88L44.0228 21.17L43.3028 22.1L46.7228 12.5C47.3428 10.74 47.6728 9.35 47.7128 8.33C47.7528 7.29 47.5528 6.54 47.1128 6.08C46.6728 5.62 46.0528 5.38 45.2528 5.36V4.76C46.0128 4.78 46.6828 4.8 47.2628 4.82C47.8628 4.84 48.5028 4.85 49.1828 4.85C49.5828 4.85 49.9928 4.84 50.4128 4.82C50.8328 4.8 51.1928 4.78 51.4928 4.76ZM57.7035 10.01C59.4635 10.01 60.8435 10.53 61.8435 11.57C62.8635 12.59 63.3735 14.31 63.3735 16.73H53.9835L53.9235 16.16H58.9935C59.0135 15.18 58.9735 14.28 58.8735 13.46C58.7735 12.62 58.6135 11.95 58.3935 11.45C58.1735 10.95 57.8735 10.7 57.4935 10.7C56.9535 10.7 56.5135 11.13 56.1735 11.99C55.8335 12.83 55.6135 14.28 55.5135 16.34L55.6335 16.58C55.6135 16.78 55.6035 16.98 55.6035 17.18C55.6035 17.38 55.6035 17.59 55.6035 17.81C55.6035 19.21 55.7735 20.3 56.1135 21.08C56.4735 21.86 56.9135 22.4 57.4335 22.7C57.9735 23 58.5135 23.15 59.0535 23.15C59.3335 23.15 59.6635 23.11 60.0435 23.03C60.4435 22.95 60.8735 22.77 61.3335 22.49C61.7935 22.19 62.2435 21.74 62.6835 21.14L63.1935 21.32C62.9535 22.12 62.5635 22.92 62.0235 23.72C61.5035 24.5 60.8235 25.15 59.9835 25.67C59.1435 26.17 58.1235 26.42 56.9235 26.42C55.6435 26.42 54.4735 26.16 53.4135 25.64C52.3735 25.12 51.5435 24.26 50.9235 23.06C50.3035 21.86 49.9935 20.25 49.9935 18.23C49.9935 16.31 50.3335 14.75 51.0135 13.55C51.6935 12.33 52.6135 11.44 53.7735 10.88C54.9535 10.3 56.2635 10.01 57.7035 10.01ZM70.7814 31.64C69.4214 31.64 68.2414 31.53 67.2414 31.31C66.2614 31.11 65.5014 30.81 64.9614 30.41C64.4214 30.03 64.1514 29.56 64.1514 29C64.1514 28.44 64.4314 27.91 64.9914 27.41C65.5514 26.93 66.4414 26.55 67.6614 26.27L67.9614 26.75C67.6414 27.13 67.4214 27.47 67.3014 27.77C67.2014 28.09 67.1514 28.39 67.1514 28.67C67.1514 29.45 67.5014 30.05 68.2014 30.47C68.9214 30.91 69.9214 31.13 71.2014 31.13C72.1014 31.13 72.8514 31 73.4514 30.74C74.0714 30.5 74.5314 30.16 74.8314 29.72C75.1514 29.28 75.3114 28.78 75.3114 28.22C75.3114 27.66 75.1014 27.18 74.6814 26.78C74.2614 26.38 73.4114 26.18 72.1314 26.18H70.5114C69.5914 26.18 68.8214 26.06 68.2014 25.82C67.5814 25.58 67.1114 25.25 66.7914 24.83C66.4714 24.39 66.3114 23.88 66.3114 23.3C66.3114 22.36 66.6814 21.57 67.4214 20.93C68.1614 20.29 69.1114 19.72 70.2714 19.22L70.5414 19.46C70.3414 19.6 70.1314 19.77 69.9114 19.97C69.6914 20.17 69.5814 20.46 69.5814 20.84C69.5814 21.48 69.9414 21.8 70.6614 21.8H73.5714C74.8714 21.8 76.0014 21.94 76.9614 22.22C77.9414 22.5 78.7014 22.96 79.2414 23.6C79.8014 24.22 80.0814 25.04 80.0814 26.06C80.0814 27.06 79.7514 27.98 79.0914 28.82C78.4514 29.68 77.4514 30.36 76.0914 30.86C74.7314 31.38 72.9614 31.64 70.7814 31.64ZM71.2014 19.61C69.9614 19.61 68.8514 19.44 67.8714 19.1C66.9114 18.76 66.1514 18.24 65.5914 17.54C65.0314 16.82 64.7514 15.91 64.7514 14.81C64.7514 13.71 65.0314 12.81 65.5914 12.11C66.1514 11.39 66.9114 10.86 67.8714 10.52C68.8514 10.18 69.9614 10.01 71.2014 10.01C72.4414 10.01 73.5414 10.18 74.5014 10.52C75.4814 10.86 76.2514 11.39 76.8114 12.11C77.3714 12.81 77.6514 13.71 77.6514 14.81C77.6514 15.91 77.3714 16.82 76.8114 17.54C76.2514 18.24 75.4814 18.76 74.5014 19.1C73.5414 19.44 72.4414 19.61 71.2014 19.61ZM71.2014 19.07C71.5814 19.07 71.8814 18.76 72.1014 18.14C72.3214 17.52 72.4314 16.41 72.4314 14.81C72.4314 13.21 72.3214 12.1 72.1014 11.48C71.8814 10.86 71.5814 10.55 71.2014 10.55C70.8214 10.55 70.5214 10.86 70.3014 11.48C70.0814 12.1 69.9714 13.21 69.9714 14.81C69.9714 16.41 70.0814 17.52 70.3014 18.14C70.5214 18.76 70.8214 19.07 71.2014 19.07ZM76.0914 12.65L75.4614 12.44C75.7814 11.6 76.2714 10.93 76.9314 10.43C77.6114 9.91 78.3514 9.65 79.1514 9.65C79.8514 9.65 80.3714 9.84 80.7114 10.22C81.0514 10.6 81.2214 11.07 81.2214 11.63C81.2214 12.21 81.0614 12.66 80.7414 12.98C80.4414 13.3 80.0714 13.46 79.6314 13.46C79.2514 13.46 78.9014 13.33 78.5814 13.07C78.2814 12.81 78.1114 12.42 78.0714 11.9C78.0314 11.38 78.2214 10.72 78.6414 9.92L78.7614 10.13C78.0614 10.39 77.5114 10.71 77.1114 11.09C76.7114 11.47 76.3714 11.99 76.0914 12.65ZM85.6478 26.21C84.7078 26.21 83.9378 26.03 83.3378 25.67C82.7378 25.31 82.2978 24.84 82.0178 24.26C81.7578 23.68 81.6278 23.07 81.6278 22.43C81.6278 21.59 81.8178 20.91 82.1978 20.39C82.5778 19.85 83.0678 19.42 83.6678 19.1C84.2878 18.76 84.9378 18.48 85.6178 18.26C86.2978 18.04 86.9378 17.83 87.5378 17.63C88.1578 17.41 88.6578 17.16 89.0378 16.88C89.4178 16.58 89.6078 16.2 89.6078 15.74V13.07C89.6078 12.75 89.5478 12.4 89.4278 12.02C89.3278 11.64 89.1278 11.31 88.8278 11.03C88.5278 10.75 88.0778 10.61 87.4778 10.61C87.1578 10.61 86.8478 10.66 86.5478 10.76C86.2678 10.84 86.0178 10.96 85.7978 11.12C86.4978 11.38 87.0078 11.75 87.3278 12.23C87.6478 12.69 87.8078 13.2 87.8078 13.76C87.8078 14.56 87.5278 15.19 86.9678 15.65C86.4078 16.11 85.7478 16.34 84.9878 16.34C84.1878 16.34 83.5678 16.09 83.1278 15.59C82.6878 15.09 82.4678 14.47 82.4678 13.73C82.4678 13.11 82.6178 12.59 82.9178 12.17C83.2378 11.73 83.7078 11.33 84.3278 10.97C84.9278 10.63 85.6478 10.39 86.4878 10.25C87.3278 10.09 88.2078 10.01 89.1278 10.01C90.1078 10.01 91.0178 10.11 91.8578 10.31C92.6978 10.49 93.4178 10.89 94.0178 11.51C94.4378 11.95 94.7078 12.5 94.8278 13.16C94.9478 13.82 95.0078 14.67 95.0078 15.71V23.75C95.0078 24.25 95.0378 24.59 95.0978 24.77C95.1778 24.95 95.3078 25.04 95.4878 25.04C95.6478 25.04 95.7978 24.99 95.9378 24.89C96.0978 24.79 96.2478 24.69 96.3878 24.59L96.6878 25.1C96.2478 25.48 95.6978 25.76 95.0378 25.94C94.3978 26.12 93.7178 26.21 92.9978 26.21C92.1378 26.21 91.4678 26.11 90.9878 25.91C90.5278 25.69 90.1978 25.41 89.9978 25.07C89.8178 24.71 89.7178 24.33 89.6978 23.93C89.2778 24.59 88.7478 25.14 88.1078 25.58C87.4878 26 86.6678 26.21 85.6478 26.21ZM88.4978 23.81C88.7178 23.81 88.9078 23.78 89.0678 23.72C89.2478 23.64 89.4278 23.5 89.6078 23.3V16.97C89.4678 17.23 89.2778 17.49 89.0378 17.75C88.8178 17.99 88.5878 18.24 88.3478 18.5C88.1078 18.76 87.8778 19.04 87.6578 19.34C87.4578 19.64 87.2878 19.99 87.1478 20.39C87.0278 20.77 86.9678 21.22 86.9678 21.74C86.9678 22.5 87.1078 23.04 87.3878 23.36C87.6878 23.66 88.0578 23.81 88.4978 23.81ZM109.385 10.01C110.305 10.01 111.025 10.13 111.545 10.37C112.085 10.59 112.495 10.87 112.775 11.21C113.075 11.57 113.295 12.05 113.435 12.65C113.575 13.25 113.645 14.06 113.645 15.08V23.21C113.645 24.05 113.765 24.62 114.005 24.92C114.265 25.22 114.705 25.37 115.325 25.37V26C114.925 25.98 114.315 25.96 113.495 25.94C112.695 25.9 111.905 25.88 111.125 25.88C110.285 25.88 109.465 25.9 108.665 25.94C107.865 25.96 107.265 25.98 106.865 26V25.37C107.385 25.37 107.745 25.22 107.945 24.92C108.145 24.62 108.245 24.05 108.245 23.21V13.46C108.245 13.04 108.195 12.69 108.095 12.41C107.995 12.13 107.835 11.92 107.615 11.78C107.415 11.64 107.135 11.57 106.775 11.57C106.415 11.57 106.065 11.66 105.725 11.84C105.405 12.02 105.135 12.28 104.915 12.62C104.715 12.94 104.615 13.31 104.615 13.73V23.21C104.615 24.05 104.715 24.62 104.915 24.92C105.135 25.22 105.495 25.37 105.995 25.37V26C105.615 25.98 105.055 25.96 104.315 25.94C103.575 25.9 102.815 25.88 102.035 25.88C101.195 25.88 100.345 25.9 99.4853 25.94C98.6253 25.96 97.9753 25.98 97.5353 26V25.37C98.1553 25.37 98.5853 25.22 98.8253 24.92C99.0853 24.62 99.2153 24.05 99.2153 23.21V13.7C99.2153 12.8 99.0953 12.14 98.8553 11.72C98.6153 11.28 98.1753 11.06 97.5353 11.06V10.43C98.1753 10.49 98.7953 10.52 99.3953 10.52C100.395 10.52 101.325 10.49 102.185 10.43C103.065 10.35 103.875 10.24 104.615 10.1V12.26C105.095 11.46 105.735 10.89 106.535 10.55C107.355 10.19 108.305 10.01 109.385 10.01ZM133.525 4.76V5.36C132.925 5.38 132.465 5.46 132.145 5.6C131.845 5.72 131.645 5.96 131.545 6.32C131.445 6.66 131.395 7.2 131.395 7.94V22.82C131.395 23.54 131.445 24.08 131.545 24.44C131.665 24.8 131.875 25.04 132.175 25.16C132.475 25.28 132.925 25.36 133.525 25.4V26C132.945 25.96 132.195 25.94 131.275 25.94C130.375 25.92 129.455 25.91 128.515 25.91C127.435 25.91 126.415 25.92 125.455 25.94C124.515 25.94 123.755 25.96 123.175 26V25.4C123.795 25.36 124.255 25.28 124.555 25.16C124.855 25.04 125.055 24.8 125.155 24.44C125.255 24.08 125.305 23.54 125.305 22.82V7.94C125.305 7.2 125.255 6.66 125.155 6.32C125.055 5.96 124.845 5.72 124.525 5.6C124.225 5.46 123.775 5.38 123.175 5.36V4.76C123.755 4.78 124.515 4.8 125.455 4.82C126.415 4.84 127.435 4.85 128.515 4.85C129.455 4.85 130.375 4.84 131.275 4.82C132.195 4.8 132.945 4.78 133.525 4.76ZM141.615 10.13V28.34C141.615 29.32 141.845 29.97 142.305 30.29C142.765 30.63 143.395 30.8 144.195 30.8V31.43C143.635 31.41 142.855 31.38 141.855 31.34C140.855 31.32 139.795 31.31 138.675 31.31C137.875 31.31 137.085 31.32 136.305 31.34C135.525 31.38 134.935 31.41 134.535 31.43V30.8C135.155 30.8 135.585 30.65 135.825 30.35C136.085 30.05 136.215 29.48 136.215 28.64V13.73C136.215 12.83 136.095 12.17 135.855 11.75C135.615 11.31 135.175 11.09 134.535 11.09V10.46C135.175 10.52 135.795 10.55 136.395 10.55C137.395 10.55 138.325 10.52 139.185 10.46C140.065 10.38 140.875 10.27 141.615 10.13ZM146.175 10.01C147.175 10.01 148.065 10.29 148.845 10.85C149.625 11.39 150.245 12.22 150.705 13.34C151.165 14.44 151.395 15.84 151.395 17.54C151.395 19.24 151.205 20.66 150.825 21.8C150.465 22.94 149.955 23.85 149.295 24.53C148.655 25.21 147.915 25.7 147.075 26C146.235 26.28 145.345 26.42 144.405 26.42C143.725 26.42 143.075 26.34 142.455 26.18C141.855 26.04 141.355 25.76 140.955 25.34L141.255 24.95C141.415 25.17 141.625 25.32 141.885 25.4C142.145 25.48 142.405 25.52 142.665 25.52C143.405 25.52 144.005 25.25 144.465 24.71C144.925 24.17 145.255 23.36 145.455 22.28C145.675 21.2 145.785 19.85 145.785 18.23C145.785 16.45 145.695 15.08 145.515 14.12C145.335 13.16 145.095 12.5 144.795 12.14C144.495 11.76 144.155 11.57 143.775 11.57C143.215 11.57 142.715 11.77 142.275 12.17C141.835 12.57 141.615 13.09 141.615 13.73V12.26C142.075 11.5 142.695 10.94 143.475 10.58C144.255 10.2 145.155 10.01 146.175 10.01ZM159.294 10.01C160.174 10.01 160.944 10.11 161.604 10.31C162.284 10.49 162.774 10.66 163.074 10.82C163.774 11.24 164.204 10.98 164.364 10.04H164.964C164.924 10.62 164.894 11.33 164.874 12.17C164.854 12.99 164.844 14.08 164.844 15.44H164.244C164.164 14.7 163.984 13.97 163.704 13.25C163.444 12.53 163.054 11.93 162.534 11.45C162.034 10.97 161.374 10.73 160.554 10.73C160.054 10.73 159.634 10.88 159.294 11.18C158.954 11.48 158.784 11.89 158.784 12.41C158.784 13.01 158.964 13.55 159.324 14.03C159.684 14.49 160.144 14.94 160.704 15.38C161.264 15.8 161.824 16.25 162.384 16.73C163.004 17.23 163.554 17.72 164.034 18.2C164.514 18.68 164.894 19.21 165.174 19.79C165.474 20.35 165.624 21.02 165.624 21.8C165.624 22.7 165.344 23.5 164.784 24.2C164.244 24.9 163.514 25.45 162.594 25.85C161.694 26.23 160.684 26.42 159.564 26.42C158.864 26.42 158.254 26.34 157.734 26.18C157.214 26.04 156.794 25.87 156.474 25.67C156.154 25.51 155.874 25.39 155.634 25.31C155.414 25.21 155.194 25.16 154.974 25.16C154.774 25.16 154.604 25.27 154.464 25.49C154.324 25.69 154.214 25.93 154.134 26.21H153.534C153.574 25.57 153.604 24.79 153.624 23.87C153.644 22.95 153.654 21.73 153.654 20.21H154.254C154.374 21.27 154.604 22.21 154.944 23.03C155.304 23.85 155.754 24.5 156.294 24.98C156.854 25.44 157.494 25.67 158.214 25.67C158.534 25.67 158.824 25.61 159.084 25.49C159.344 25.37 159.554 25.19 159.714 24.95C159.874 24.71 159.954 24.4 159.954 24.02C159.954 23.14 159.684 22.4 159.144 21.8C158.624 21.2 157.964 20.54 157.164 19.82C156.564 19.26 155.994 18.72 155.454 18.2C154.934 17.66 154.504 17.08 154.164 16.46C153.824 15.82 153.654 15.11 153.654 14.33C153.654 13.43 153.914 12.66 154.434 12.02C154.974 11.38 155.674 10.89 156.534 10.55C157.394 10.19 158.314 10.01 159.294 10.01ZM182.955 10.1V22.73C182.955 23.63 183.075 24.3 183.315 24.74C183.575 25.16 184.015 25.37 184.635 25.37V26C184.015 25.94 183.395 25.91 182.775 25.91C181.775 25.91 180.845 25.94 179.985 26C179.125 26.06 178.315 26.17 177.555 26.33V24.17C177.075 24.97 176.425 25.55 175.605 25.91C174.805 26.25 173.865 26.42 172.785 26.42C171.865 26.42 171.135 26.3 170.595 26.06C170.075 25.84 169.675 25.56 169.395 25.22C169.095 24.86 168.875 24.38 168.735 23.78C168.595 23.18 168.525 22.37 168.525 21.35V13.7C168.525 12.8 168.405 12.14 168.165 11.72C167.925 11.28 167.485 11.06 166.845 11.06V10.43C167.485 10.49 168.105 10.52 168.705 10.52C169.705 10.52 170.635 10.49 171.495 10.43C172.375 10.35 173.185 10.24 173.925 10.1V22.97C173.925 23.39 173.975 23.74 174.075 24.02C174.175 24.3 174.335 24.51 174.555 24.65C174.775 24.79 175.055 24.86 175.395 24.86C175.775 24.86 176.125 24.77 176.445 24.59C176.765 24.41 177.025 24.16 177.225 23.84C177.445 23.5 177.555 23.12 177.555 22.7V13.7C177.555 12.8 177.435 12.14 177.195 11.72C176.955 11.28 176.515 11.06 175.875 11.06V10.43C176.515 10.49 177.135 10.52 177.735 10.52C178.735 10.52 179.665 10.49 180.525 10.43C181.405 10.35 182.215 10.24 182.955 10.1ZM197.357 10.01C198.277 10.01 198.997 10.13 199.517 10.37C200.057 10.59 200.467 10.87 200.747 11.21C201.047 11.57 201.267 12.05 201.407 12.65C201.547 13.25 201.617 14.06 201.617 15.08V23.21C201.617 24.05 201.717 24.62 201.917 24.92C202.117 25.22 202.477 25.37 202.997 25.37V26C202.617 25.98 202.047 25.96 201.287 25.94C200.547 25.9 199.817 25.88 199.097 25.88C198.317 25.88 197.557 25.9 196.817 25.94C196.077 25.96 195.517 25.98 195.137 26V25.37C195.537 25.37 195.817 25.22 195.977 24.92C196.137 24.62 196.217 24.05 196.217 23.21V13.46C196.217 13.04 196.177 12.69 196.097 12.41C196.017 12.13 195.887 11.92 195.707 11.78C195.547 11.64 195.327 11.57 195.047 11.57C194.687 11.57 194.337 11.66 193.997 11.84C193.677 12.02 193.407 12.28 193.187 12.62C192.987 12.94 192.887 13.31 192.887 13.73V23.21C192.887 24.05 192.967 24.62 193.127 24.92C193.287 25.22 193.567 25.37 193.967 25.37V26C193.627 25.98 193.107 25.96 192.407 25.94C191.727 25.9 191.027 25.88 190.307 25.88C189.467 25.88 188.617 25.9 187.757 25.94C186.897 25.96 186.247 25.98 185.807 26V25.37C186.427 25.37 186.857 25.22 187.097 24.92C187.357 24.62 187.487 24.05 187.487 23.21V13.7C187.487 12.8 187.367 12.14 187.127 11.72C186.887 11.28 186.447 11.06 185.807 11.06V10.43C186.447 10.49 187.067 10.52 187.667 10.52C188.667 10.52 189.597 10.49 190.457 10.43C191.337 10.35 192.147 10.24 192.887 10.1V12.26C193.347 11.46 193.957 10.89 194.717 10.55C195.477 10.19 196.357 10.01 197.357 10.01ZM206.387 10.01C207.307 10.01 208.027 10.13 208.547 10.37C209.087 10.59 209.497 10.87 209.777 11.21C210.077 11.57 210.297 12.05 210.437 12.65C210.577 13.25 210.647 14.06 210.647 15.08V23.21C210.647 24.05 210.767 24.62 211.007 24.92C211.267 25.22 211.707 25.37 212.327 25.37V26C211.927 25.98 211.317 25.96 210.497 25.94C209.697 25.9 208.907 25.88 208.127 25.88C207.347 25.88 206.587 25.9 205.847 25.94C205.107 25.96 204.547 25.98 204.167 26V25.37C204.567 25.37 204.847 25.22 205.007 24.92C205.167 24.62 205.247 24.05 205.247 23.21V13.46C205.247 13.04 205.197 12.69 205.097 12.41C204.997 12.13 204.837 11.92 204.617 11.78C204.417 11.64 204.137 11.57 203.777 11.57C203.417 11.57 203.067 11.68 202.727 11.9C202.407 12.12 202.137 12.41 201.917 12.77C201.717 13.11 201.597 13.49 201.557 13.91L201.347 12.71C201.887 11.65 202.587 10.94 203.447 10.58C204.327 10.2 205.307 10.01 206.387 10.01Z" fill="#2D5A27"/>
<path d="M17.3676 9.06149C16.9004 9.37947 16.4095 9.65587 15.9018 9.88428C15.0067 10.2874 14.0665 10.5508 13.0712 10.8294C11.8479 11.1721 10.5831 11.5261 9.40784 12.1632C8.55939 12.6229 7.766 13.2378 7.07478 13.9676C8.71817 11.2962 8.70822 9.70585 8.22484 7.36062C8.19653 9.58291 7.5095 11.7928 6.27343 13.6396C5.41613 14.9197 4.29726 16.0393 3.66926 17.446C2.83961 19.3032 2.97671 21.5129 3.81475 23.3664C4.30234 24.4444 5.0097 25.4069 5.85417 26.2379C3.84395 25.3605 2.11034 23.7631 1.08301 21.8073C-0.094698 19.5642 -0.326656 16.8829 0.459663 14.5874C1.20396 12.4142 2.77681 10.6633 3.67567 8.55756C4.48719 6.65679 4.72246 4.48359 4.34435 2.38182C6.96333 1.62647 9.94827 2.00437 12.4255 3.40474C14.6392 4.65607 16.4212 6.70897 17.3676 9.06149Z" fill="#2D5A27"/>
<path d="M25.5496 20.9666C24.1276 23.9363 21.406 26.0874 18.3998 27.0349C15.3939 27.9827 12.1334 27.7938 9.12219 26.8651C8.62599 26.7119 8.12426 26.5279 7.63934 26.3059C5.97207 18.3848 12.1299 17.5154 14.5656 16.8911C17.9271 16.0294 19.0398 14.8404 20.3316 12.69C18.8054 14.3055 16.8031 15.466 14.6428 15.9872C13.1451 16.3483 11.5636 16.4139 10.1487 17.0234C8.28039 17.8278 6.88444 19.5462 6.24539 21.4772C5.87389 22.6005 5.74234 23.7877 5.8007 24.9712C4.91621 22.9641 4.72295 20.6146 5.29211 18.4799C5.94488 16.0321 7.59068 13.9024 9.72387 12.7464C11.7436 11.6518 14.0866 11.4294 16.1742 10.4892C18.0586 9.6405 19.7038 8.20121 20.8494 6.39882C23.2878 7.6172 25.2274 9.91711 26.1013 12.6254C26.9752 15.3337 26.7713 18.4147 25.5496 20.9666Z" fill="#519F43"/>
</svg>
