
<svg width="180" height="27" viewBox="0 0 180 27" fill="none" xmlns="http://www.w3.org/2000/svg">
<path d="M21.0866 0V0.5982C20.6479 0.7976 20.1693 1.1964 19.6509 1.7946C19.1325 2.37286 18.6639 3.26019 18.2451 4.4566L12.1734 21.2062C11.974 21.1863 11.7546 21.1763 11.5154 21.1763C11.296 21.1564 11.0767 21.1464 10.8573 21.1464C10.638 21.1464 10.4087 21.1564 10.1694 21.1763C9.95008 21.1763 9.74071 21.1863 9.5413 21.2062L1.82451 2.51244C1.54535 1.7946 1.23628 1.30607 0.897301 1.04685C0.578261 0.76769 0.27916 0.61814 0 0.5982V0C0.658021 0.0199398 1.42571 0.0398795 2.30307 0.0598193C3.20037 0.0797591 4.09768 0.089729 4.99498 0.089729C5.97204 0.089729 6.87931 0.0797591 7.71679 0.0598193C8.57421 0.0398795 9.26214 0.0199398 9.78059 0V0.5982C9.1425 0.61814 8.644 0.68793 8.28508 0.80757C7.9461 0.927211 7.7467 1.16649 7.68688 1.52541C7.647 1.86439 7.76664 2.3928 8.0458 3.11064L13.4595 16.6599L12.8015 17.4974L16.5702 7.1485C17.1484 5.53336 17.4475 4.2572 17.4675 3.32001C17.4874 2.36289 17.278 1.67496 16.8394 1.25622C16.4007 0.83748 15.7825 0.61814 14.9849 0.5982V0C15.7028 0.0199398 16.3508 0.0398795 16.9291 0.0598193C17.5273 0.0797591 18.1554 0.089729 18.8134 0.089729C19.2322 0.089729 19.6409 0.0797591 20.0397 0.0598193C20.4385 0.0398795 20.7875 0.0199398 21.0866 0Z" fill="#2D5A27"/>
<path d="M27.2572 5.26417C29.0119 5.26417 30.3877 5.78261 31.3848 6.81949C32.3818 7.85637 32.8803 9.56124 32.8803 11.9341H23.2791L23.2492 11.3658H28.8125C28.8524 10.3888 28.8125 9.49145 28.6928 8.67391C28.5732 7.83643 28.3738 7.16844 28.0946 6.66994C27.8354 6.17144 27.4865 5.92219 27.0478 5.92219C26.4496 5.92219 25.9411 6.3509 25.5224 7.20832C25.1036 8.06574 24.8444 9.52136 24.7447 11.5752L24.8644 11.7846C24.8245 12.0039 24.8045 12.2332 24.8045 12.4725C24.8045 12.6918 24.8045 12.9311 24.8045 13.1903C24.8045 14.5662 24.984 15.6629 25.3429 16.4804C25.7218 17.298 26.1904 17.8762 26.7487 18.2152C27.307 18.5542 27.8853 18.7237 28.4835 18.7237C28.8225 18.7237 29.2013 18.6738 29.6201 18.5741C30.0388 18.4744 30.4775 18.2651 30.9361 17.946C31.3947 17.627 31.8334 17.1584 32.2521 16.5403L32.7606 16.7197C32.5413 17.4974 32.1624 18.2651 31.624 19.0228C31.1056 19.7606 30.4376 20.3787 29.6201 20.8772C28.8025 21.3558 27.8155 21.5951 26.659 21.5951C25.3429 21.5951 24.1665 21.3259 23.1296 20.7875C22.0927 20.2292 21.2652 19.3618 20.647 18.1853C20.0488 16.9889 19.7497 15.4336 19.7497 13.5193C19.7497 11.625 20.0788 10.0697 20.7368 8.85337C21.3948 7.63703 22.2921 6.73973 23.4287 6.16147C24.5653 5.56327 25.8414 5.26417 27.2572 5.26417Z" fill="#2D5A27"/>
<path d="M40.355 26.7994C39.0589 26.7994 37.9223 26.6897 36.9452 26.4704C35.9682 26.271 35.2104 25.9619 34.6721 25.5432C34.1337 25.1444 33.8645 24.6558 33.8645 24.0776C33.8645 23.4794 34.1436 22.931 34.702 22.4325C35.2603 21.954 36.1177 21.5751 37.2742 21.296L37.5434 21.7745C37.2044 22.1135 36.9652 22.4425 36.8256 22.7615C36.686 23.1005 36.6162 23.4295 36.6162 23.7486C36.6162 24.5661 36.9851 25.1942 37.7229 25.6329C38.4607 26.0716 39.4776 26.2909 40.7737 26.2909C41.671 26.2909 42.4487 26.1613 43.1067 25.9021C43.7647 25.6628 44.2732 25.3139 44.6321 24.8552C44.991 24.3966 45.1705 23.8582 45.1705 23.2401C45.1705 22.6618 44.9511 22.1733 44.5125 21.7745C44.0937 21.3757 43.2363 21.1763 41.9402 21.1763H40.2054C39.348 21.1763 38.6102 21.0666 37.9921 20.8473C37.3739 20.628 36.8954 20.3189 36.5564 19.9201C36.2373 19.5213 36.0778 19.0228 36.0778 18.4246C36.0778 17.5273 36.4268 16.7696 37.1247 16.1514C37.8226 15.5133 38.7897 14.9251 40.0259 14.3867L40.2951 14.626C39.996 14.8055 39.7069 15.0148 39.4277 15.2541C39.1685 15.4934 39.0389 15.8124 39.0389 16.2112C39.0389 16.8493 39.4178 17.1684 40.1755 17.1684H43.2562C44.4526 17.1684 45.5095 17.3079 46.4267 17.5871C47.3439 17.8463 48.0618 18.285 48.5802 18.9031C49.1186 19.5013 49.3878 20.289 49.3878 21.266C49.3878 22.263 49.0688 23.1803 48.4307 24.0178C47.7926 24.8552 46.8056 25.5232 45.4696 26.0217C44.1535 26.5402 42.4487 26.7994 40.355 26.7994ZM40.7438 14.8055C39.5474 14.8055 38.4806 14.636 37.5434 14.297C36.6262 13.958 35.8984 13.4396 35.36 12.7417C34.8216 12.0238 34.5524 11.1166 34.5524 10.0199C34.5524 8.92316 34.8216 8.02586 35.36 7.32796C35.8984 6.63006 36.6262 6.11162 37.5434 5.77264C38.4806 5.43366 39.5474 5.26417 40.7438 5.26417C41.9203 5.26417 42.9771 5.43366 43.9143 5.77264C44.8514 6.11162 45.5892 6.63006 46.1276 7.32796C46.666 8.02586 46.9352 8.92316 46.9352 10.0199C46.9352 11.1166 46.666 12.0238 46.1276 12.7417C45.5892 13.4396 44.8514 13.958 43.9143 14.297C42.9771 14.636 41.9203 14.8055 40.7438 14.8055ZM40.7438 14.2671C41.1825 14.2671 41.5314 13.958 41.7906 13.3399C42.0698 12.7217 42.2094 11.6151 42.2094 10.0199C42.2094 8.42466 42.0698 7.32796 41.7906 6.72976C41.5314 6.11162 41.1825 5.80255 40.7438 5.80255C40.2852 5.80255 39.9262 6.11162 39.667 6.72976C39.4078 7.32796 39.2782 8.42466 39.2782 10.0199C39.2782 11.6151 39.4078 12.7217 39.667 13.3399C39.9262 13.958 40.2852 14.2671 40.7438 14.2671ZM45.4995 7.86634L44.8714 7.65697C45.1904 6.83943 45.6789 6.18141 46.337 5.68291C47.0149 5.16447 47.7527 4.90525 48.5503 4.90525C49.2083 4.90525 49.6969 5.08471 50.0159 5.44363C50.3549 5.80255 50.5244 6.27114 50.5244 6.8494C50.5244 7.42766 50.3649 7.87631 50.0458 8.19535C49.7467 8.49445 49.3878 8.644 48.9691 8.644C48.6101 8.644 48.2811 8.52436 47.982 8.28508C47.6829 8.02586 47.5134 7.647 47.4735 7.1485C47.4337 6.63006 47.6131 5.98201 48.0119 5.20435L48.1914 5.38381C47.4536 5.64303 46.8853 5.96207 46.4865 6.34093C46.1077 6.71979 45.7786 7.22826 45.4995 7.86634Z" fill="#2D5A27"/>
<path d="M55.0635 21.3857C54.1462 21.3857 53.3885 21.2162 52.7903 20.8772C52.1921 20.5183 51.7534 20.0497 51.4743 19.4714C51.1951 18.8932 51.0555 18.275 51.0555 17.617C51.0555 16.7795 51.2449 16.0916 51.6238 15.5532C52.0226 15.0148 52.5311 14.5861 53.1492 14.2671C53.7674 13.9281 54.4154 13.6489 55.0934 13.4296C55.7713 13.2103 56.4194 13.0009 57.0375 12.8015C57.6557 12.5822 58.1542 12.3329 58.533 12.0537C58.9119 11.7546 59.1013 11.3758 59.1013 10.9172V8.43463C59.1013 7.99595 59.0315 7.58718 58.8919 7.20832C58.7723 6.80952 58.543 6.49048 58.204 6.2512C57.885 5.99198 57.4363 5.86237 56.8581 5.86237C56.4991 5.86237 56.1502 5.91222 55.8112 6.01192C55.4722 6.11162 55.1731 6.27114 54.9139 6.49048C55.552 6.70982 56.0206 7.03883 56.3197 7.47751C56.6387 7.91619 56.7982 8.40472 56.7982 8.9431C56.7982 9.68088 56.539 10.2691 56.0206 10.7078C55.5221 11.1265 54.9239 11.3359 54.226 11.3359C53.4683 11.3359 52.88 11.0966 52.4613 10.6181C52.0625 10.1395 51.8631 9.56124 51.8631 8.88328C51.8631 8.28508 52.0126 7.78658 52.3117 7.38778C52.6108 6.96904 53.0495 6.59018 53.6278 6.2512C54.206 5.91222 54.9039 5.66297 55.7215 5.50345C56.539 5.34393 57.4064 5.26417 58.3237 5.26417C59.2608 5.26417 60.1183 5.36387 60.8959 5.56327C61.6935 5.74273 62.3715 6.11162 62.9298 6.66994C63.3685 7.12856 63.6476 7.68688 63.7673 8.3449C63.8869 9.00292 63.9467 9.8404 63.9467 10.8573V18.9331C63.9467 19.4316 63.9866 19.7805 64.0664 19.9799C64.1661 20.1594 64.3156 20.2491 64.515 20.2491C64.6945 20.2491 64.864 20.1993 65.0235 20.0996C65.183 19.9999 65.3425 19.8902 65.5021 19.7705L65.8311 20.279C65.3924 20.6379 64.874 20.9171 64.2757 21.1165C63.6775 21.296 63.0295 21.3857 62.3316 21.3857C61.534 21.3857 60.9059 21.286 60.4473 21.0866C60.0086 20.8672 59.6895 20.5781 59.4901 20.2192C59.3107 19.8603 59.211 19.4615 59.191 19.0228C58.7524 19.7406 58.204 20.3189 57.546 20.7576C56.888 21.1763 56.0605 21.3857 55.0635 21.3857ZM57.546 19.2322C57.865 19.2322 58.1442 19.1723 58.3835 19.0527C58.6427 18.9131 58.882 18.6838 59.1013 18.3648V12.1435C58.9418 12.4226 58.7225 12.6918 58.4433 12.951C58.1841 13.1903 57.9049 13.4396 57.6058 13.6988C57.3067 13.9381 57.0176 14.2073 56.7384 14.5064C56.4792 14.8055 56.2599 15.1644 56.0804 15.5831C55.9209 15.9819 55.8411 16.4705 55.8411 17.0487C55.8411 17.8264 56.0006 18.3847 56.3197 18.7237C56.6387 19.0627 57.0475 19.2322 57.546 19.2322Z" fill="#2D5A27"/>
<path d="M78.1365 5.26417C79.0138 5.26417 79.7117 5.37384 80.2302 5.59318C80.7686 5.81252 81.1773 6.09168 81.4565 6.43066C81.7755 6.80952 82.0049 7.29805 82.1444 7.89625C82.304 8.49445 82.3837 9.30202 82.3837 10.319V18.3947C82.3837 19.2322 82.5133 19.8004 82.7725 20.0996C83.0517 20.3987 83.5203 20.5482 84.1783 20.5482V21.1763C83.7795 21.1564 83.1813 21.1364 82.3837 21.1165C81.6061 21.0766 80.8483 21.0567 80.1105 21.0567C79.293 21.0567 78.5054 21.0766 77.7477 21.1165C76.9899 21.1364 76.4216 21.1564 76.0428 21.1763V20.5482C76.6011 20.5482 76.9899 20.3987 77.2093 20.0996C77.4286 19.8004 77.5383 19.2322 77.5383 18.3947V8.88328C77.5383 8.42466 77.4884 8.03583 77.3887 7.71679C77.289 7.37781 77.1195 7.12856 76.8803 6.96904C76.641 6.78958 76.302 6.69985 75.8633 6.69985C75.4047 6.69985 74.976 6.81949 74.5772 7.05877C74.1983 7.29805 73.8893 7.63703 73.65 8.07571C73.4306 8.49445 73.321 8.97301 73.321 9.51139V18.3947C73.321 19.2322 73.4306 19.8004 73.65 20.0996C73.8693 20.3987 74.2581 20.5482 74.8165 20.5482V21.1763C74.4376 21.1564 73.8893 21.1364 73.1714 21.1165C72.4536 21.0766 71.7258 21.0567 70.988 21.0567C70.1704 21.0567 69.3529 21.0766 68.5354 21.1165C67.7178 21.1364 67.0997 21.1564 66.6809 21.1763V20.5482C67.339 20.5482 67.7976 20.3987 68.0568 20.0996C68.336 19.8004 68.4755 19.2322 68.4755 18.3947V8.9431C68.4755 8.0458 68.3459 7.38778 68.0867 6.96904C67.8275 6.53036 67.3589 6.31102 66.6809 6.31102V5.68291C67.319 5.74273 67.9372 5.77264 68.5354 5.77264C69.4327 5.77264 70.2801 5.74273 71.0777 5.68291C71.8953 5.60315 72.643 5.49348 73.321 5.3539V7.77661C73.7995 6.85937 74.4476 6.21132 75.2651 5.83246C76.1026 5.4536 77.0597 5.26417 78.1365 5.26417Z" fill="#2D5A27"/>
<path d="M102.025 0V0.5982C101.407 0.61814 100.938 0.6979 100.619 0.837481C100.3 0.957121 100.091 1.1964 99.9911 1.55532C99.8914 1.8943 99.8416 2.43268 99.8416 3.17046V18.0058C99.8416 18.7237 99.8914 19.2621 99.9911 19.621C100.111 19.9799 100.32 20.2192 100.619 20.3388C100.938 20.4585 101.407 20.5382 102.025 20.5781V21.1763C101.467 21.1364 100.749 21.1165 99.8715 21.1165C99.0141 21.0966 98.1467 21.0866 97.2693 21.0866C96.2524 21.0866 95.2953 21.0966 94.398 21.1165C93.5007 21.1165 92.7828 21.1364 92.2444 21.1763V20.5781C92.8626 20.5382 93.3212 20.4585 93.6203 20.3388C93.9393 20.2192 94.1487 19.9799 94.2484 19.621C94.3681 19.2621 94.4279 18.7237 94.4279 18.0058V3.17046C94.4279 2.43268 94.3681 1.8943 94.2484 1.55532C94.1487 1.1964 93.9393 0.957121 93.6203 0.837481C93.3212 0.6979 92.8626 0.61814 92.2444 0.5982V0C92.7828 0.0199398 93.5007 0.0398795 94.398 0.0598193C95.2953 0.0797591 96.2524 0.089729 97.2693 0.089729C98.1467 0.089729 99.0141 0.0797591 99.8715 0.0598193C100.749 0.0398795 101.467 0.0199398 102.025 0Z" fill="#4A8C3F"/>
<path d="M109.771 5.38381V23.5691C109.771 24.5262 110 25.1643 110.459 25.4834C110.938 25.8024 111.586 25.9619 112.403 25.9619V26.59C111.865 26.5701 111.117 26.5402 110.16 26.5003C109.203 26.4804 108.196 26.4704 107.139 26.4704C106.381 26.4704 105.624 26.4804 104.866 26.5003C104.128 26.5402 103.57 26.5701 103.191 26.59V25.9619C103.829 25.9619 104.278 25.8124 104.537 25.5133C104.796 25.2341 104.926 24.6858 104.926 23.8682V8.97301C104.926 8.07571 104.796 7.41769 104.537 6.99895C104.278 6.56027 103.809 6.34093 103.131 6.34093V5.71282C103.769 5.77264 104.387 5.80255 104.985 5.80255C105.903 5.80255 106.76 5.77264 107.558 5.71282C108.355 5.63306 109.093 5.52339 109.771 5.38381ZM114.347 5.26417C115.364 5.26417 116.262 5.54333 117.039 6.10165C117.837 6.64003 118.465 7.46754 118.924 8.58418C119.402 9.68088 119.641 11.0667 119.641 12.7417C119.641 14.3169 119.462 15.6629 119.103 16.7795C118.764 17.8962 118.275 18.8134 117.637 19.5313C117.019 20.2491 116.281 20.7775 115.424 21.1165C114.587 21.4355 113.679 21.5951 112.702 21.5951C111.964 21.5951 111.277 21.4854 110.638 21.266C110.02 21.0666 109.532 20.7376 109.173 20.279L109.472 19.8902C109.651 20.1693 109.901 20.3787 110.22 20.5183C110.539 20.6579 110.878 20.7277 111.237 20.7277C112.054 20.7277 112.702 20.4485 113.181 19.8902C113.679 19.3119 114.038 18.4744 114.258 17.3777C114.477 16.281 114.587 14.9451 114.587 13.3698C114.587 11.635 114.487 10.2891 114.287 9.33193C114.088 8.35487 113.819 7.66694 113.48 7.26814C113.141 6.86934 112.742 6.66994 112.283 6.66994C111.645 6.66994 111.067 6.91919 110.549 7.41769C110.05 7.89625 109.771 8.55427 109.711 9.39175L109.651 8.13553C110.07 7.17841 110.688 6.46057 111.506 5.98201C112.323 5.50345 113.271 5.26417 114.347 5.26417Z" fill="#4A8C3F"/>
<path d="M127.461 5.26417C128.339 5.26417 129.096 5.36387 129.734 5.56327C130.372 5.76267 130.841 5.9521 131.14 6.13156C131.838 6.57024 132.257 6.29108 132.396 5.29408H133.024C132.985 5.87234 132.955 6.57024 132.935 7.38778C132.915 8.18538 132.905 9.26214 132.905 10.6181H132.277C132.197 9.88028 132.017 9.15247 131.738 8.43463C131.479 7.71679 131.09 7.12856 130.572 6.66994C130.053 6.19138 129.375 5.9521 128.538 5.9521C128 5.9521 127.541 6.11162 127.162 6.43066C126.803 6.7497 126.624 7.18838 126.624 7.7467C126.624 8.3449 126.803 8.87331 127.162 9.33193C127.521 9.79055 127.98 10.2292 128.538 10.648C129.116 11.0667 129.694 11.5154 130.273 11.9939C130.911 12.4725 131.479 12.961 131.978 13.4595C132.496 13.9381 132.905 14.4665 133.204 15.0448C133.523 15.6031 133.682 16.281 133.682 17.0786C133.682 17.9759 133.413 18.7636 132.875 19.4415C132.337 20.1195 131.629 20.6479 130.751 21.0268C129.874 21.4056 128.897 21.5951 127.82 21.5951C127.162 21.5951 126.584 21.5253 126.085 21.3857C125.607 21.266 125.208 21.1065 124.889 20.9071C124.59 20.7675 124.321 20.6479 124.081 20.5482C123.862 20.4485 123.643 20.3787 123.423 20.3388C123.224 20.3189 123.054 20.4086 122.915 20.608C122.775 20.8074 122.666 21.0666 122.586 21.3857H121.958C121.998 20.7476 122.028 19.9699 122.047 19.0527C122.067 18.1355 122.077 16.9191 122.077 15.4037H122.705C122.825 16.4804 123.044 17.4276 123.364 18.2451C123.702 19.0627 124.151 19.7107 124.709 20.1893C125.268 20.6479 125.926 20.8772 126.684 20.8772C127.023 20.8772 127.332 20.8174 127.611 20.6978C127.91 20.5582 128.149 20.3488 128.329 20.0696C128.528 19.7905 128.628 19.4316 128.628 18.9929C128.628 18.1155 128.349 17.3877 127.79 16.8094C127.232 16.2112 126.544 15.5632 125.726 14.8653C125.088 14.3269 124.49 13.7985 123.932 13.2801C123.393 12.7616 122.945 12.1933 122.586 11.5752C122.247 10.957 122.077 10.2591 122.077 9.48148C122.077 8.58418 122.327 7.82646 122.825 7.20832C123.344 6.57024 124.012 6.09168 124.829 5.77264C125.647 5.43366 126.524 5.26417 127.461 5.26417Z" fill="#4A8C3F"/>
<path d="M150.665 5.3539V17.9161C150.665 18.8134 150.795 19.4814 151.054 19.9201C151.333 20.3388 151.802 20.5482 152.46 20.5482V21.1763C151.842 21.1165 151.224 21.0866 150.605 21.0866C149.688 21.0866 148.831 21.1165 148.033 21.1763C147.256 21.2361 146.518 21.3458 145.82 21.5053V19.0826C145.341 19.9799 144.683 20.628 143.846 21.0268C143.028 21.4056 142.091 21.5951 141.034 21.5951C140.157 21.5951 139.449 21.4854 138.911 21.266C138.392 21.0467 137.993 20.7576 137.714 20.3986C137.395 20.0397 137.166 19.5612 137.026 18.963C136.887 18.3448 136.817 17.5373 136.817 16.5403V8.9431C136.817 8.0458 136.687 7.38778 136.428 6.96904C136.169 6.53036 135.7 6.31102 135.022 6.31102V5.68291C135.66 5.74273 136.279 5.77264 136.877 5.77264C137.794 5.77264 138.651 5.74273 139.449 5.68291C140.247 5.60315 140.984 5.49348 141.662 5.3539V17.9759C141.662 18.4346 141.712 18.8234 141.812 19.1424C141.912 19.4615 142.081 19.7107 142.32 19.8902C142.56 20.0696 142.879 20.1594 143.278 20.1594C143.736 20.1594 144.155 20.0397 144.534 19.8004C144.913 19.5612 145.222 19.2322 145.461 18.8134C145.7 18.3747 145.82 17.8862 145.82 17.3478V8.9431C145.82 8.0458 145.69 7.38778 145.431 6.96904C145.172 6.53036 144.703 6.31102 144.025 6.31102V5.68291C144.663 5.74273 145.281 5.77264 145.88 5.77264C146.797 5.77264 147.654 5.74273 148.452 5.68291C149.25 5.60315 149.987 5.49348 150.665 5.3539Z" fill="#4A8C3F"/>
<path d="M164.91 5.26417C165.768 5.26417 166.456 5.37384 166.974 5.59318C167.512 5.81252 167.931 6.09168 168.23 6.43066C168.549 6.80952 168.779 7.30802 168.918 7.92616C169.058 8.52436 169.128 9.32196 169.128 10.319V18.3947C169.128 19.2322 169.237 19.8004 169.457 20.0996C169.696 20.3987 170.105 20.5482 170.683 20.5482V21.1763C170.304 21.1564 169.746 21.1364 169.008 21.1165C168.27 21.0766 167.552 21.0567 166.854 21.0567C166.097 21.0567 165.359 21.0766 164.641 21.1165C163.923 21.1364 163.385 21.1564 163.026 21.1763V20.5482C163.484 20.5482 163.804 20.3987 163.983 20.0996C164.182 19.8004 164.282 19.2322 164.282 18.3947V8.88328C164.282 8.42466 164.242 8.03583 164.162 7.71679C164.083 7.37781 163.943 7.12856 163.744 6.96904C163.544 6.78958 163.255 6.69985 162.876 6.69985C162.438 6.69985 162.019 6.81949 161.62 7.05877C161.241 7.29805 160.932 7.63703 160.693 8.07571C160.474 8.49445 160.364 8.97301 160.364 9.51139V18.3947C160.364 19.2322 160.454 19.8004 160.633 20.0996C160.813 20.3987 161.142 20.5482 161.62 20.5482V21.1763C161.281 21.1564 160.773 21.1364 160.095 21.1165C159.417 21.0766 158.729 21.0567 158.031 21.0567C157.213 21.0567 156.396 21.0766 155.578 21.1165C154.761 21.1364 154.143 21.1564 153.724 21.1763V20.5482C154.382 20.5482 154.84 20.3987 155.1 20.0996C155.379 19.8004 155.518 19.2322 155.518 18.3947V8.9431C155.518 8.0458 155.389 7.38778 155.13 6.96904C154.87 6.53036 154.402 6.31102 153.724 6.31102V5.68291C154.362 5.74273 154.98 5.77264 155.578 5.77264C156.476 5.77264 157.323 5.74273 158.121 5.68291C158.938 5.60315 159.686 5.49348 160.364 5.3539V7.77661C160.822 6.87931 161.441 6.24123 162.218 5.86237C163.016 5.46357 163.913 5.26417 164.91 5.26417ZM173.913 5.26417C174.771 5.26417 175.458 5.37384 175.977 5.59318C176.515 5.81252 176.934 6.09168 177.233 6.43066C177.552 6.80952 177.781 7.30802 177.921 7.92616C178.061 8.52436 178.13 9.32196 178.13 10.319V18.3947C178.13 19.2322 178.26 19.8004 178.519 20.0996C178.798 20.3987 179.267 20.5482 179.925 20.5482V21.1763C179.526 21.1564 178.928 21.1364 178.13 21.1165C177.353 21.0766 176.595 21.0567 175.857 21.0567C175.1 21.0567 174.362 21.0766 173.644 21.1165C172.926 21.1364 172.388 21.1564 172.029 21.1763V20.5482C172.487 20.5482 172.806 20.3987 172.986 20.0996C173.185 19.8004 173.285 19.2322 173.285 18.3947V8.88328C173.285 8.42466 173.235 8.03583 173.135 7.71679C173.036 7.37781 172.866 7.12856 172.627 6.96904C172.408 6.78958 172.079 6.69985 171.64 6.69985C171.201 6.69985 170.783 6.83943 170.384 7.11859C170.005 7.37781 169.696 7.72676 169.457 8.16544C169.237 8.60412 169.108 9.09265 169.068 9.63103L168.888 8.13553C169.427 7.01889 170.134 6.26117 171.012 5.86237C171.889 5.46357 172.856 5.26417 173.913 5.26417Z" fill="#4A8C3F"/>
</svg>
