<svg width="391" height="158" viewBox="0 0 391 158" fill="none" xmlns="http://www.w3.org/2000/svg">
<path d="M162.24 98.75C158.187 89.4688 152.172 71.3958 158.083 52.099C167.781 20.4427 205.828 -2.26041 251.62 0.6823C257.698 39.3073 242.714 75.4896 214.479 91.6302C195.464 102.505 175.76 101.24 166.427 99.9427C175.984 92.7344 186.708 83.4688 197.427 71.7448C213.974 53.6458 225.021 35.6823 232.328 21.349C221.828 35.9375 209.208 51.6927 194.13 67.7917C183.25 79.4063 172.505 89.6875 162.24 98.75Z" fill="#39B54A"/>
<path d="M150.031 99.7604C142.885 101.911 129.135 104.74 115.5 98.8021C93.1302 89.0625 79.7396 59.4948 85.7969 26.4896C114.615 25.3646 139.844 39.3281 149.266 61.2083C155.615 75.9479 153.005 90.151 151.26 96.8177C146.792 89.2656 140.922 80.6875 133.24 71.901C121.391 58.3438 109.177 48.7865 99.2969 42.2604C109.089 51.1302 119.557 61.6354 130.068 73.9583C137.651 82.8542 144.266 91.5313 150.031 99.7604Z" fill="#39B54A"/>
<path d="M17.5581 142.76L0.766388 96.7387H12.2664L23.8914 132.989H24.0372L35.5997 96.7387H47.0997L30.3081 142.76H17.5581Z" fill="#3D3D3D"/>
<path d="M67.264 144.051C63.389 144.051 59.9568 143.286 56.9724 141.76C53.9984 140.233 51.6703 138.114 49.9932 135.405C48.3109 132.687 47.4724 129.551 47.4724 126.01C47.4724 122.525 48.212 119.457 49.7015 116.801C51.1859 114.15 53.2745 112.082 55.9724 110.593C58.6651 109.108 61.7849 108.364 65.3265 108.364C68.7693 108.364 71.7693 109.082 74.3265 110.51C76.8943 111.926 78.8995 113.9 80.3474 116.426C81.7901 118.942 82.514 121.858 82.514 125.176C82.514 125.832 82.4724 126.489 82.389 127.155C82.3057 127.822 82.1911 128.416 82.0557 128.926H57.639C57.9307 131.301 58.9932 133.213 60.8265 134.655C62.6599 136.103 64.9359 136.822 67.6599 136.822C69.712 136.822 71.6443 136.405 73.4515 135.572C75.2693 134.728 76.6495 133.629 77.5974 132.28L83.2224 136.614C81.889 138.812 79.7849 140.603 76.9099 141.989C74.0453 143.364 70.8318 144.051 67.264 144.051ZM57.5557 123.239H72.4932C72.3265 120.78 71.5974 118.864 70.3057 117.489C69.014 116.103 67.3526 115.405 65.3265 115.405C63.2536 115.405 61.5193 116.129 60.1182 117.572C58.712 119.02 57.8578 120.905 57.5557 123.239Z" fill="#3D3D3D"/>
<path d="M100.148 157.635C96.7416 157.635 93.4812 157.072 90.3562 155.947C87.2312 154.822 84.7625 153.332 82.9604 151.489L86.3771 144.114C87.8458 145.707 89.7416 146.994 92.0646 147.968C94.3979 148.937 96.8146 149.426 99.3146 149.426C102.716 149.426 105.429 148.51 107.46 146.676C109.486 144.843 110.502 142.353 110.502 139.197V136.551H110.44C109.315 138.416 107.7 139.895 105.606 140.989C103.523 142.088 101.341 142.635 99.0646 142.635C96.1323 142.635 93.575 141.937 91.3979 140.53C89.2156 139.129 87.5229 137.171 86.3146 134.655C85.1062 132.129 84.5021 129.166 84.5021 125.76C84.5021 122.317 85.0906 119.322 86.2729 116.78C87.4656 114.239 89.1271 112.27 91.2521 110.864C93.3875 109.463 95.8823 108.76 98.7312 108.76C101.19 108.76 103.492 109.421 105.648 110.739C107.799 112.046 109.419 113.775 110.502 115.926H110.565L112.044 109.655H120.398V139.53C120.398 143.197 119.565 146.385 117.898 149.093C116.242 151.812 113.898 153.916 110.856 155.405C107.815 156.89 104.242 157.635 100.148 157.635ZM102.606 134.614C105.106 134.614 107.106 133.791 108.606 132.135C110.117 130.468 110.877 128.343 110.877 125.76C110.877 123.135 110.117 120.968 108.606 119.26C107.106 117.551 105.106 116.697 102.606 116.697C100.148 116.697 98.1531 117.53 96.6271 119.197C95.0958 120.853 94.3354 123.041 94.3354 125.76C94.3354 128.385 95.0958 130.52 96.6271 132.155C98.1531 133.796 100.148 134.614 102.606 134.614Z" fill="#3D3D3D"/>
<path d="M134.331 143.739C130.883 143.739 128.049 142.874 125.831 141.155C123.622 139.421 122.518 137.135 122.518 134.301C122.518 131.457 123.737 129.062 126.185 127.114C128.643 125.171 132.351 123.942 137.31 123.426L143.706 122.655C144.482 122.572 145.107 122.332 145.581 121.926C146.049 121.51 146.289 120.957 146.289 120.26C146.289 118.843 145.726 117.707 144.601 116.843C143.487 115.983 142.049 115.551 140.289 115.551C138.299 115.551 136.664 116.171 135.372 117.405C134.081 118.629 133.351 120.051 133.185 121.676L123.539 120.197C123.758 117.921 124.565 115.885 125.956 114.093C127.357 112.301 129.268 110.9 131.685 109.885C134.101 108.874 136.877 108.364 140.018 108.364C144.893 108.364 148.773 109.567 151.664 111.968C154.549 114.358 155.997 117.624 155.997 121.76V134.551C155.997 136.15 156.56 136.947 157.685 136.947C158.627 136.947 159.487 136.447 160.268 135.447L162.581 140.697C161.591 141.687 160.315 142.437 158.747 142.947C157.174 143.473 155.633 143.739 154.122 143.739C152.133 143.739 150.424 143.197 148.997 142.114C147.581 141.03 146.768 139.739 146.56 138.239L146.435 137.072H146.372C145.289 139.062 143.711 140.671 141.643 141.905C139.57 143.124 137.133 143.739 134.331 143.739ZM138.081 136.947C140.414 136.947 142.331 136.228 143.831 134.78C145.341 133.338 146.101 131.489 146.101 129.239V127.885L139.768 128.593C137.002 128.9 135.081 129.463 133.997 130.28C132.924 131.103 132.393 132.051 132.393 133.135C132.393 134.249 132.924 135.166 133.997 135.885C135.081 136.593 136.44 136.947 138.081 136.947Z" fill="#3D3D3D"/>
<path d="M185.404 108.697C188.805 108.697 191.471 109.692 193.404 111.676C195.346 113.65 196.32 116.405 196.32 119.947V142.76H186.424V122.968C186.424 121.082 185.93 119.603 184.945 118.53C183.956 117.447 182.596 116.905 180.862 116.905C178.747 116.905 177.013 117.593 175.654 118.968C174.305 120.343 173.633 122.176 173.633 124.468V142.76H163.737V109.655H172.07L173.57 115.676H173.633C174.841 113.426 176.445 111.707 178.445 110.51C180.445 109.301 182.763 108.697 185.404 108.697Z" fill="#3D3D3D"/>
<path d="M213.701 142.76V96.7387H224.743V142.76H213.701Z" fill="#3D3D3D"/>
<path d="M229.459 156.343V109.655H237.73L239.23 115.989H239.292C241.652 111.129 245.506 108.697 250.855 108.697C253.74 108.697 256.298 109.437 258.522 110.905C260.74 112.364 262.48 114.4 263.73 117.01C264.98 119.608 265.605 122.676 265.605 126.218C265.605 129.707 264.98 132.77 263.73 135.405C262.48 138.03 260.74 140.082 258.522 141.551C256.298 143.01 253.74 143.739 250.855 143.739C245.605 143.739 241.792 141.301 239.417 136.426H239.355V156.343H229.459ZM247.313 135.322C249.756 135.322 251.761 134.457 253.334 132.718C254.917 130.968 255.709 128.801 255.709 126.218C255.709 123.541 254.917 121.338 253.334 119.614C251.761 117.895 249.756 117.03 247.313 117.03C244.897 117.03 242.897 117.905 241.313 119.655C239.74 121.395 238.959 123.582 238.959 126.218C238.959 128.801 239.74 130.968 241.313 132.718C242.897 134.457 244.897 135.322 247.313 135.322Z" fill="#3D3D3D"/>
<path d="M283.046 143.926C280.072 143.926 277.385 143.489 274.984 142.614C272.593 141.728 270.676 140.426 269.234 138.718C267.786 137.01 266.984 134.937 266.817 132.489L275.421 131.51C275.588 133.275 276.432 134.687 277.963 135.739C279.489 136.796 281.379 137.322 283.629 137.322C285.473 137.322 287.046 136.963 288.338 136.239C289.629 135.504 290.275 134.572 290.275 133.447C290.275 132.463 289.744 131.655 288.692 131.03C287.635 130.405 285.947 129.9 283.629 129.51L278.713 128.739C275.046 128.129 272.39 127.093 270.754 125.635C269.114 124.166 268.296 122.072 268.296 119.364C268.296 116.004 269.609 113.353 272.234 111.405C274.869 109.463 278.301 108.489 282.525 108.489C285.15 108.489 287.504 108.9 289.588 109.718C291.682 110.541 293.385 111.687 294.692 113.155C296.01 114.614 296.801 116.317 297.067 118.26L288.671 119.489C288.531 118.072 287.859 116.947 286.65 116.114C285.452 115.27 283.968 114.843 282.192 114.843C280.65 114.843 279.359 115.197 278.317 115.905C277.286 116.614 276.754 117.463 276.713 118.447C276.713 119.27 277.15 119.963 278.025 120.53C278.911 121.088 280.348 121.541 282.338 121.885L287.234 122.718C291.411 123.457 294.442 124.608 296.317 126.176C298.192 127.749 299.129 129.916 299.129 132.676C299.129 134.957 298.447 136.937 297.088 138.614C295.739 140.296 293.859 141.603 291.442 142.53C289.025 143.457 286.223 143.926 283.046 143.926Z" fill="#3D3D3D"/>
<path d="M312.115 143.739C308.709 143.739 306.037 142.749 304.094 140.76C302.162 138.775 301.198 136.02 301.198 132.489V109.655H311.094V129.447C311.094 131.296 311.584 132.77 312.573 133.864C313.558 134.963 314.912 135.51 316.636 135.51C318.803 135.51 320.553 134.817 321.886 133.426C323.219 132.025 323.886 130.197 323.886 127.947V109.655H333.782V142.76H325.428L323.948 136.739H323.886C322.678 138.989 321.073 140.718 319.073 141.926C317.073 143.135 314.75 143.739 312.115 143.739Z" fill="#3D3D3D"/>
<path d="M337.575 142.76V109.655H345.534L347.013 115.676H347.075C347.976 113.483 349.45 111.775 351.492 110.551C353.544 109.317 355.846 108.697 358.388 108.697C363.607 108.697 366.95 111.108 368.409 115.926H368.471C369.721 113.468 371.398 111.65 373.513 110.468C375.622 109.291 377.93 108.697 380.43 108.697C383.706 108.697 386.263 109.749 388.096 111.843C389.93 113.926 390.846 116.843 390.846 120.593V142.76H380.95V122.78C380.95 120.978 380.476 119.567 379.534 118.551C378.586 117.541 377.294 117.03 375.659 117.03C373.586 117.03 371.976 117.728 370.825 119.114C369.685 120.489 369.117 122.317 369.117 124.593V142.76H359.305V122.78C359.305 120.978 358.825 119.567 357.867 118.551C356.919 117.541 355.607 117.03 353.93 117.03C351.898 117.03 350.315 117.728 349.18 119.114C348.039 120.489 347.471 122.317 347.471 124.593V142.76H337.575Z" fill="#3D3D3D"/>
</svg>
